<svg xmlns="http://www.w3.org/2000/svg" xmlns:xlink="http://www.w3.org/1999/xlink" width="304" height="320" viewBox="0 0 304 320">
    <defs>
        <rect id="a" width="304" height="320" rx="6"/>
    </defs>
    <g fill="none" fill-rule="evenodd">
        <mask id="b" fill="#fff">
            <use xlink:href="#a"/>
        </mask>
        <use fill="#639" xlink:href="#a"/>
        <path fill="#3F2E56" d="M0 54h304v64H0z" mask="url(#b)"/>
        <g fill-rule="nonzero" stroke="#FFF" stroke-linecap="square" stroke-opacity=".5" mask="url(#b)">
            <path d="M8.566 177.5h288M8.566 257.5h288"/>
        </g>
        <g mask="url(#b)">
            <path fill="#FFF" fill-rule="nonzero" d="M61.827 20.1h2.18l6.1 14.16h-2.88l-1.32-3.24h-6.14l-1.28 3.24h-2.82l6.16-14.16zm3.2 8.76l-2.18-5.76-2.22 5.76h4.4zm13.867 3.96h-.04a3.087 3.087 0 0 1-1.4 1.28c-.587.266-1.22.4-1.9.4-.747 0-1.41-.13-1.99-.39a4.459 4.459 0 0 1-1.49-1.07 4.575 4.575 0 0 1-.94-1.6 5.986 5.986 0 0 1-.32-1.98c0-.707.113-1.367.34-1.98a4.924 4.924 0 0 1 .95-1.6c.406-.454.896-.81 1.47-1.07.573-.26 1.2-.39 1.88-.39.453 0 .853.046 1.2.14.346.093.653.213.92.36.266.146.493.303.68.47.186.166.34.33.46.49h.06v-6.74h2.4v15.12h-2.28v-1.44zm-5.68-3.36c0 .373.063.733.19 1.08.126.346.313.653.56.92.246.266.543.48.89.64.346.16.74.24 1.18.24.44 0 .833-.08 1.18-.24a2.79 2.79 0 0 0 .89-.64 2.71 2.71 0 0 0 .56-.92c.126-.347.19-.707.19-1.08 0-.374-.064-.734-.19-1.08a2.71 2.71 0 0 0-.56-.92 2.79 2.79 0 0 0-.89-.64c-.347-.16-.74-.24-1.18-.24-.44 0-.834.08-1.18.24a2.79 2.79 0 0 0-.89.64 2.71 2.71 0 0 0-.56.92c-.127.346-.19.706-.19 1.08zM84.12 20.1h4.32c.587 0 1.16.06 1.72.18s1.06.316 1.5.59c.44.273.797.63 1.07 1.07.274.44.41.986.41 1.64 0 .826-.223 1.51-.67 2.05-.446.54-1.05.923-1.81 1.15v.04a3.563 3.563 0 0 1 2.29 1.1c.287.306.51.663.67 1.07.16.406.24.843.24 1.31 0 .786-.163 1.433-.49 1.94a3.65 3.65 0 0 1-1.28 1.21c-.526.3-1.12.51-1.78.63-.66.12-1.316.18-1.97.18h-4.22V20.1zm1.68 6h2.32c.4 0 .79-.027 1.17-.08.38-.054.724-.164 1.03-.33.307-.167.554-.4.74-.7.187-.3.28-.697.28-1.19 0-.44-.086-.797-.26-1.07a1.9 1.9 0 0 0-.69-.65 2.982 2.982 0 0 0-.98-.33 6.862 6.862 0 0 0-1.11-.09h-2.5v4.44zm0 6.6h2.84c.414 0 .824-.044 1.23-.13a3.627 3.627 0 0 0 1.1-.42 2.33 2.33 0 0 0 .79-.76c.2-.314.3-.697.3-1.15 0-.494-.096-.907-.29-1.24a2.303 2.303 0 0 0-.76-.8c-.313-.2-.673-.34-1.08-.42a6.46 6.46 0 0 0-1.25-.12H85.8v5.04zm10.607-13.56h1.56v15.12h-1.56V19.14zm3.947 10.44c0-.734.127-1.4.38-2 .253-.6.6-1.117 1.04-1.55.44-.434.967-.77 1.58-1.01.613-.24 1.28-.36 2-.36s1.387.12 2 .36 1.14.576 1.58 1.01c.44.433.787.95 1.04 1.55.253.6.38 1.266.38 2 0 .733-.127 1.4-.38 2-.253.6-.6 1.116-1.04 1.55-.44.433-.967.77-1.58 1.01-.613.24-1.28.36-2 .36s-1.387-.12-2-.36a4.621 4.621 0 0 1-1.58-1.01 4.731 4.731 0 0 1-1.04-1.55c-.253-.6-.38-1.267-.38-2zm1.68 0c0 .493.077.95.23 1.37.153.42.377.786.67 1.1.293.313.643.56 1.05.74.407.18.863.27 1.37.27.507 0 .963-.09 1.37-.27.407-.18.757-.427 1.05-.74.293-.314.517-.68.67-1.1.153-.42.23-.877.23-1.37 0-.494-.077-.95-.23-1.37a3.191 3.191 0 0 0-.67-1.1 3.189 3.189 0 0 0-1.05-.74 3.35 3.35 0 0 0-1.37-.27c-.507 0-.963.09-1.37.27-.407.18-.757.426-1.05.74-.293.313-.517.68-.67 1.1-.153.42-.23.876-.23 1.37zm17.227-2.34c-.333-.4-.693-.69-1.08-.87a2.996 2.996 0 0 0-1.28-.27c-.52 0-.98.09-1.38.27-.4.18-.73.43-.99.75s-.457.69-.59 1.11c-.133.42-.2.87-.2 1.35 0 .48.077.93.23 1.35.153.42.367.79.64 1.11.273.32.603.57.99.75.387.18.82.27 1.3.27 1.027 0 1.82-.387 2.38-1.16l1.16 1.1c-.453.52-.987.9-1.6 1.14-.613.24-1.26.36-1.94.36-.72 0-1.38-.12-1.98-.36-.6-.24-1.11-.58-1.53-1.02-.42-.44-.747-.96-.98-1.56-.233-.6-.35-1.26-.35-1.98 0-.707.117-1.36.35-1.96.233-.6.563-1.12.99-1.56a4.52 4.52 0 0 1 1.53-1.03 5.084 5.084 0 0 1 1.97-.37c.693 0 1.35.12 1.97.36a4.31 4.31 0 0 1 1.63 1.12l-1.24 1.1zm2.807-8.1h1.56v9.88l4.26-4.12h2.22l-4.52 4.26 4.98 5.1h-2.3l-4.64-4.92v4.92h-1.56V19.14z"/>
            <path fill="#F40D12" d="M23.54 11.716l-7.824 7.825A2.444 2.444 0 0 0 15 21.27v11.067c0 .648.258 1.27.716 1.728l7.824 7.825c.459.458 1.08.716 1.729.716h11.067c.648 0 1.27-.258 1.729-.716l7.824-7.825c.458-.458.716-1.08.716-1.728V21.27c0-.649-.258-1.27-.716-1.729l-7.824-7.825A2.444 2.444 0 0 0 36.336 11H25.269c-.648 0-1.27.258-1.729.716z"/>
            <path fill="#FFF" d="M30.426 38.26c5.236 0 6.478-4.803 6.478-4.803l3.005-8.635s.272-.896.222-.906c-2.799-.523-3.394 1.45-3.394 1.45s-1.075 2.793-1.242 2.793c-.167 0-.187-.207-.187-.207V17.916s.052-1.295-1.277-1.295c-1.33 0-1.262 1.297-1.262 1.297l.002 7.415s.018.298-.231.298c-.222 0-.21-.288-.21-.288V16.41s.083-1.46-1.262-1.46c-1.344 0-1.272 1.47-1.272 1.47l-.012 8.813s.017.271-.205.271c-.206 0-.199-.268-.199-.268v-7.39s.075-1.504-1.294-1.504c-1.345 0-1.273 1.532-1.273 1.532l-.012 7.802s.025.227-.187.227c-.224 0-.219-.227-.219-.227l-.01-4.718s.012-1.304-1.118-1.304c-1.202 0-1.18 1.304-1.18 1.304v10.183c.008-.002-.304 7.118 6.339 7.118z"/>
            <g>
                <path fill="#FFF" d="M23.54 11.716l-7.824 7.825A2.444 2.444 0 0 0 15 21.27v11.067c0 .648.258 1.27.716 1.728l7.824 7.825c.459.458 1.08.716 1.729.716h11.067c.648 0 1.27-.258 1.729-.716l7.824-7.825c.458-.458.716-1.08.716-1.728V21.27c0-.649-.258-1.27-.716-1.729l-7.824-7.825A2.444 2.444 0 0 0 36.336 11H25.269c-.648 0-1.27.258-1.729.716z"/>
                <path fill="#639" d="M30.426 38.26c5.236 0 6.478-4.803 6.478-4.803l3.005-8.635s.272-.896.222-.906c-2.799-.523-3.394 1.45-3.394 1.45s-1.075 2.793-1.242 2.793c-.167 0-.187-.207-.187-.207V17.916s.052-1.295-1.277-1.295c-1.33 0-1.262 1.297-1.262 1.297l.002 7.415s.018.298-.231.298c-.222 0-.21-.288-.21-.288V16.41s.083-1.46-1.262-1.46c-1.344 0-1.272 1.47-1.272 1.47l-.012 8.813s.017.271-.205.271c-.206 0-.199-.268-.199-.268v-7.39s.075-1.504-1.294-1.504c-1.345 0-1.273 1.532-1.273 1.532l-.012 7.802s.025.227-.187.227c-.224 0-.219-.227-.219-.227l-.01-4.718s.012-1.304-1.118-1.304c-1.202 0-1.18 1.304-1.18 1.304v10.183c.008-.002-.304 7.118 6.339 7.118z"/>
            </g>
        </g>
        <g fill="#FFF" fill-opacity=".5" mask="url(#b)">
            <path d="M259.833 19.667h-11.666c-.925 0-1.667.75-1.667 1.666V33c0 .917.742 1.667 1.667 1.667h3.333l2.5 2.5 2.5-2.5h3.333c.917 0 1.667-.75 1.667-1.667V21.333c0-.916-.75-1.666-1.667-1.666zm-5 13.333h-1.666v-1.667h1.666V33zm1.725-6.458l-.75.766c-.6.609-.975 1.109-.975 2.359h-1.666v-.417c0-.917.375-1.75.975-2.358l1.033-1.05c.308-.3.492-.717.492-1.175 0-.917-.75-1.667-1.667-1.667s-1.667.75-1.667 1.667h-1.666a3.332 3.332 0 1 1 6.666 0c0 .733-.3 1.4-.775 1.875z"/>
            <path fill-rule="nonzero" d="M288 28.455v-2.91h-2.372a5.795 5.795 0 0 0-.62-1.496l1.677-1.677-2.057-2.057-1.677 1.677a5.795 5.795 0 0 0-1.496-.62V19h-2.91v2.372a5.795 5.795 0 0 0-1.496.62l-1.677-1.677-2.057 2.057 1.677 1.677a5.795 5.795 0 0 0-.62 1.496H272v2.91h2.372c.138.532.347 1.034.62 1.496l-1.677 1.677 2.057 2.057 1.677-1.677c.462.273.964.482 1.496.62V35h2.91v-2.372a5.795 5.795 0 0 0 1.496-.62l1.677 1.677 2.057-2.057-1.677-1.677c.273-.462.482-.964.62-1.496H288zm-8 .727a2.182 2.182 0 1 1 0-4.364 2.182 2.182 0 0 1 0 4.364z"/>
        </g>
        <g mask="url(#b)">
            <g transform="translate(15 67)">
                <rect width="76" height="16" fill="#FFF" rx="4"/>
                <rect width="103" height="8" y="65" fill="#FFF" rx="4"/>
                <rect width="142" height="8" y="126" fill="#FFF" rx="4"/>
                <rect width="142" height="8" y="207" fill="#FFF" rx="4"/>
                <rect width="195" height="8" y="227" fill="#FFCA00" rx="4"/>
                <rect width="171" height="8" y="166" fill="#FFF" rx="4"/>
                <rect width="103" height="8" y="85" fill="#FFF" rx="4"/>
                <rect width="129" height="8" y="146" fill="#FFF" rx="4"/>
                <rect width="15" height="8" y="24" fill="#4ECDF9" rx="4"/>
                <rect width="40" height="8" x="155" y="24" fill="#4ECDF9" rx="4"/>
                <rect width="69" height="8" x="23" y="24" fill="#FFF" rx="4"/>
                <rect width="37" height="8" x="203" y="24" fill="#FFF" rx="4"/>
            </g>
        </g>
    </g>
</svg>
