<svg width="20" height="21" viewBox="0 0 20 21" fill="none" xmlns="http://www.w3.org/2000/svg">
<g clip-path="url(#clip0_1649_2068)">
<path fill-rule="evenodd" clip-rule="evenodd" d="M6.54792 0.5C6.10589 0.5 5.68194 0.675615 5.36936 0.988206L0.488103 5.86989C0.175574 6.18244 0 6.60636 0 7.04836V13.9526C0 14.3947 0.175595 14.8186 0.488156 15.1311L5.36936 20.0124C5.68194 20.3249 6.10586 20.5005 6.54789 20.5005H13.4521C13.8941 20.5005 14.3181 20.3249 14.6306 20.0124L19.5118 15.1311C19.8244 14.8186 20 14.3946 20 13.9526V7.04836C20 6.60636 19.8244 6.18244 19.5119 5.86989L14.6306 0.988206C14.3181 0.675615 13.8941 0.5 13.4521 0.5H6.54792Z" fill="#E40D0D"/>
<path fill-rule="evenodd" clip-rule="evenodd" d="M9.56733 17.75C12.8806 17.75 13.6668 14.7108 13.6668 14.7108L15.5685 9.24692C15.5685 9.24692 15.7402 8.67975 15.7087 8.67344C13.9378 8.34258 13.5613 9.59039 13.5613 9.59039C13.5613 9.59039 12.8806 11.3581 12.7751 11.3581C12.6695 11.3581 12.6569 11.2274 12.6569 11.2274V4.87644C12.6569 4.87644 12.69 4.05717 11.8487 4.05717C11.0074 4.05717 11.0499 4.87802 11.0499 4.87802L11.0515 9.56992C11.0515 9.56992 11.0625 9.75897 10.9049 9.75897C10.7647 9.75897 10.7726 9.57622 10.7726 9.57622V3.92325C10.7726 3.92325 10.8246 3 9.9738 3C9.12303 3 9.16872 3.92956 9.16872 3.92956L9.16086 9.50689C9.16086 9.50689 9.17189 9.67861 9.03166 9.67861C8.90089 9.67861 8.90561 9.50847 8.90561 9.50847V4.83233C8.90561 4.83233 8.95289 3.88071 8.08635 3.88071C7.23557 3.88071 7.28125 4.84966 7.28125 4.84966L7.27338 9.78733C7.27338 9.78733 7.28913 9.93069 7.15521 9.93069C7.01342 9.93069 7.01657 9.78733 7.01657 9.78733L7.01027 6.80172C7.01027 6.80172 7.01814 5.97617 6.30286 5.97617C5.54188 5.97617 5.55606 6.80172 5.55606 6.80172V13.2456C5.56079 13.244 5.36385 17.75 9.56733 17.75Z" fill="white"/>
</g>
<defs>
<clipPath id="clip0_1649_2068">
<rect width="20" height="20" fill="white" transform="translate(0 0.5)"/>
</clipPath>
</defs>
</svg>
