<?xml version="1.0" encoding="UTF-8"?>
<svg width="228px" height="142px" viewBox="0 0 228 142" version="1.1" xmlns="http://www.w3.org/2000/svg" xmlns:xlink="http://www.w3.org/1999/xlink">
    <!-- Generator: Sketch 55.2 (78181) - https://sketchapp.com -->
    <title>sync content</title>
    <desc>Created with Sketch.</desc>
    <defs>
        <filter x="-5.7%" y="-1287.3%" width="111.3%" height="2674.5%" filterUnits="objectBoundingBox" id="filter-1">
            <feGaussianBlur stdDeviation="1.98086124" in="SourceGraphic"></feGaussianBlur>
        </filter>
        <filter x="-5.7%" y="-1287.3%" width="111.3%" height="2674.5%" filterUnits="objectBoundingBox" id="filter-2">
            <feGaussianBlur stdDeviation="1.98086124" in="SourceGraphic"></feGaussianBlur>
        </filter>
        <filter x="-5.7%" y="-1287.3%" width="111.3%" height="2674.5%" filterUnits="objectBoundingBox" id="filter-3">
            <feGaussianBlur stdDeviation="1.98086124" in="SourceGraphic"></feGaussianBlur>
        </filter>
        <filter x="-5.7%" y="-1287.3%" width="111.3%" height="2674.5%" filterUnits="objectBoundingBox" id="filter-4">
            <feGaussianBlur stdDeviation="1.98086124" in="SourceGraphic"></feGaussianBlur>
        </filter>
    </defs>
    <g id="iFrame-Variants" stroke="none" stroke-width="1" fill="none" fill-rule="evenodd">
        <g id="iFrame_v3_mouseover" transform="translate(-1074.000000, -733.000000)">
            <g id="sync" transform="translate(1020.000000, 583.000000)">
                <g id="sync-content" transform="translate(55.000000, 150.000000)">
                    <g id="list" transform="translate(0.622010, 0.000000)">
                        <g id="MACBOOK">
                            <g>
                                <rect id="shadow" fill-opacity="0.25" fill="#000000" filter="url(#filter-1)" x="0.615759051" y="61.3989435" width="104.986918" height="1" rx="0.5"></rect>
                                <rect id="base" fill="#A9ABAE" x="0" y="59.0907125" width="106.526316" height="2.30823096" rx="1.15411548"></rect>
                                <rect id="shape" fill="#E6E7E8" x="0" y="55.8591892" width="106.526316" height="4.61646192"></rect>
                                <rect id="light" fill="#C0C0C0" x="97.9056891" y="57.2441278" width="3.6945543" height="1" rx="0.5"></rect>
                                <path d="M18.5444249,0 C14.1689041,0 10.6218436,3.54724828 10.6218436,7.91433943 L10.6218436,55.8591892 L95.4426529,55.8591892 L95.4426529,7.91433943 C95.4426529,3.54337046 91.8925788,0 87.5200716,0 L18.5444249,0 Z" id="screen" fill="#373435"></path>
                                <g id="display-2" transform="translate(13.762406, 3.436699)">
                                    <rect id="display" fill="#FFFFFF" x="0.0921726281" y="0.102588043" width="78.9710983" height="49.8577887"></rect>
                                    <g id="Group" transform="translate(26.930810, 6.606471)" fill="#05BCFC">
                                        <rect id="Rectangle" x="11.969249" y="1.2011765" width="31.4456704" height="3.37638394" rx="1.68819197"></rect>
                                        <ellipse id="Oval" cx="3.29154347" cy="3.30323537" rx="3.29154347" ry="3.30323537"></ellipse>
                                    </g>
                                    <g id="Group-Copy" transform="translate(26.930810, 16.215883)" fill="#05BCFC">
                                        <rect id="Rectangle" x="11.969249" y="1.2011765" width="31.4456704" height="3.37638394" rx="1.68819197"></rect>
                                        <ellipse id="Oval" cx="3.29154347" cy="3.30323537" rx="3.29154347" ry="3.30323537"></ellipse>
                                    </g>
                                    <g id="Group-Copy-2" transform="translate(26.930810, 25.825295)" fill="#05BCFC">
                                        <rect id="Rectangle" x="11.969249" y="1.2011765" width="31.4456704" height="3.37638394" rx="1.68819197"></rect>
                                        <ellipse id="Oval" cx="3.29154347" cy="3.30323537" rx="3.29154347" ry="3.30323537"></ellipse>
                                    </g>
                                    <g id="Group-Copy-3" transform="translate(26.930810, 35.434707)" fill="#D8D8D8">
                                        <rect id="Rectangle" x="11.969249" y="1.2011765" width="31.4456704" height="3.37638394" rx="1.68819197"></rect>
                                        <ellipse id="Oval" cx="3.29154347" cy="3.30323537" rx="3.29154347" ry="3.30323537"></ellipse>
                                    </g>
                                    <text id="settings---material" font-family="material" font-size="15.84689" font-weight="normal" fill="#D8D8D8">
                                        <tspan x="4.78769959" y="17.085338"></tspan>
                                    </text>
                                </g>
                                <path d="M13.5991041,0 L89.7992867,55.8591892 L89.7992867,7.91433943 C89.7992867,3.54337046 86.2515487,0 81.8780393,0 L13.5991041,0 Z" id="shine" fill="#000000" opacity="0.05" transform="translate(51.699195, 27.929595) rotate(-180.000000) translate(-51.699195, -27.929595) "></path>
                                <ellipse id="camera" fill="#7C7B7B" cx="53.3401278" cy="1.76964373" rx="1" ry="1"></ellipse>
                            </g>
                        </g>
                    </g>
                    <g id="list-copy-2" transform="translate(0.622010, 76.246108)">
                        <g id="MACBOOK">
                            <g>
                                <rect id="shadow" fill-opacity="0.25" fill="#000000" filter="url(#filter-2)" x="0.615759051" y="61.3989435" width="104.986918" height="1" rx="0.5"></rect>
                                <rect id="base" fill="#A9ABAE" x="0" y="59.0907125" width="106.526316" height="2.30823096" rx="1.15411548"></rect>
                                <rect id="shape" fill="#E6E7E8" x="0" y="55.8591892" width="106.526316" height="4.61646192"></rect>
                                <rect id="light" fill="#C0C0C0" x="97.9056891" y="57.2441278" width="3.6945543" height="1" rx="0.5"></rect>
                                <path d="M18.5444249,0 C14.1689041,0 10.6218436,3.54724828 10.6218436,7.91433943 L10.6218436,55.8591892 L95.4426529,55.8591892 L95.4426529,7.91433943 C95.4426529,3.54337046 91.8925788,0 87.5200716,0 L18.5444249,0 Z" id="screen" fill="#373435"></path>
                                <g id="display-2" transform="translate(13.762406, 3.436699)">
                                    <rect id="display" fill="#FFFFFF" x="0.0921726281" y="0.102588043" width="78.9710983" height="49.8577887"></rect>
                                    <g id="Group" transform="translate(26.930810, 6.606471)" fill="#05BCFC">
                                        <rect id="Rectangle" x="11.969249" y="1.2011765" width="31.4456704" height="3.37638394" rx="1.68819197"></rect>
                                        <ellipse id="Oval" cx="3.29154347" cy="3.30323537" rx="3.29154347" ry="3.30323537"></ellipse>
                                    </g>
                                    <g id="Group-Copy" transform="translate(26.930810, 16.215883)" fill="#05BCFC">
                                        <rect id="Rectangle" x="11.969249" y="1.2011765" width="31.4456704" height="3.37638394" rx="1.68819197"></rect>
                                        <ellipse id="Oval" cx="3.29154347" cy="3.30323537" rx="3.29154347" ry="3.30323537"></ellipse>
                                    </g>
                                    <g id="Group-Copy-2" transform="translate(26.930810, 25.825295)" fill="#05BCFC">
                                        <rect id="Rectangle" x="11.969249" y="1.2011765" width="31.4456704" height="3.37638394" rx="1.68819197"></rect>
                                        <ellipse id="Oval" cx="3.29154347" cy="3.30323537" rx="3.29154347" ry="3.30323537"></ellipse>
                                    </g>
                                    <g id="Group-Copy-3" transform="translate(26.930810, 35.434707)" fill="#D8D8D8">
                                        <rect id="Rectangle" x="11.969249" y="1.2011765" width="31.4456704" height="3.37638394" rx="1.68819197"></rect>
                                        <ellipse id="Oval" cx="3.29154347" cy="3.30323537" rx="3.29154347" ry="3.30323537"></ellipse>
                                    </g>
                                    <text id="settings---material" font-family="material" font-size="15.84689" font-weight="normal" fill="#D8D8D8">
                                        <tspan x="4.78769959" y="17.085338"></tspan>
                                    </text>
                                </g>
                                <path d="M13.5991041,0 L89.7992867,55.8591892 L89.7992867,7.91433943 C89.7992867,3.54337046 86.2515487,0 81.8780393,0 L13.5991041,0 Z" id="shine" fill="#000000" opacity="0.05" transform="translate(51.699195, 27.929595) rotate(-180.000000) translate(-51.699195, -27.929595) "></path>
                                <ellipse id="camera" fill="#7C7B7B" cx="53.3401278" cy="1.76964373" rx="1" ry="1"></ellipse>
                            </g>
                        </g>
                    </g>
                    <g id="list-copy" transform="translate(119.473684, 0.000000)">
                        <g id="MACBOOK">
                            <g>
                                <rect id="shadow" fill-opacity="0.25" fill="#000000" filter="url(#filter-3)" x="0.615759051" y="61.3989435" width="104.986918" height="1" rx="0.5"></rect>
                                <rect id="base" fill="#A9ABAE" x="0" y="59.0907125" width="106.526316" height="2.30823096" rx="1.15411548"></rect>
                                <rect id="shape" fill="#E6E7E8" x="0" y="55.8591892" width="106.526316" height="4.61646192"></rect>
                                <rect id="light" fill="#C0C0C0" x="97.9056891" y="57.2441278" width="3.6945543" height="1" rx="0.5"></rect>
                                <path d="M18.5444249,0 C14.1689041,0 10.6218436,3.54724828 10.6218436,7.91433943 L10.6218436,55.8591892 L95.4426529,55.8591892 L95.4426529,7.91433943 C95.4426529,3.54337046 91.8925788,0 87.5200716,0 L18.5444249,0 Z" id="screen" fill="#373435"></path>
                                <g id="display-2" transform="translate(13.762406, 3.436699)">
                                    <rect id="display" fill="#FFFFFF" x="0.0921726281" y="0.102588043" width="78.9710983" height="49.8577887"></rect>
                                    <g id="Group" transform="translate(26.930810, 6.606471)" fill="#05BCFC">
                                        <rect id="Rectangle" x="11.969249" y="1.2011765" width="31.4456704" height="3.37638394" rx="1.68819197"></rect>
                                        <ellipse id="Oval" cx="3.29154347" cy="3.30323537" rx="3.29154347" ry="3.30323537"></ellipse>
                                    </g>
                                    <g id="Group-Copy" transform="translate(26.930810, 16.215883)" fill="#05BCFC">
                                        <rect id="Rectangle" x="11.969249" y="1.2011765" width="31.4456704" height="3.37638394" rx="1.68819197"></rect>
                                        <ellipse id="Oval" cx="3.29154347" cy="3.30323537" rx="3.29154347" ry="3.30323537"></ellipse>
                                    </g>
                                    <g id="Group-Copy-2" transform="translate(26.930810, 25.825295)" fill="#05BCFC">
                                        <rect id="Rectangle" x="11.969249" y="1.2011765" width="31.4456704" height="3.37638394" rx="1.68819197"></rect>
                                        <ellipse id="Oval" cx="3.29154347" cy="3.30323537" rx="3.29154347" ry="3.30323537"></ellipse>
                                    </g>
                                    <g id="Group-Copy-3" transform="translate(26.930810, 35.434707)" fill="#D8D8D8">
                                        <rect id="Rectangle" x="11.969249" y="1.2011765" width="31.4456704" height="3.37638394" rx="1.68819197"></rect>
                                        <ellipse id="Oval" cx="3.29154347" cy="3.30323537" rx="3.29154347" ry="3.30323537"></ellipse>
                                    </g>
                                    <text id="settings---material" font-family="material" font-size="15.84689" font-weight="normal" fill="#D8D8D8">
                                        <tspan x="4.78769959" y="17.085338"></tspan>
                                    </text>
                                </g>
                                <path d="M13.5991041,0 L89.7992867,55.8591892 L89.7992867,7.91433943 C89.7992867,3.54337046 86.2515487,0 81.8780393,0 L13.5991041,0 Z" id="shine" fill="#000000" opacity="0.05" transform="translate(51.699195, 27.929595) rotate(-180.000000) translate(-51.699195, -27.929595) "></path>
                                <ellipse id="camera" fill="#7C7B7B" cx="53.3401278" cy="1.76964373" rx="1" ry="1"></ellipse>
                            </g>
                        </g>
                    </g>
                    <g id="list-copy-3" transform="translate(119.473684, 76.246108)">
                        <g id="MACBOOK">
                            <g>
                                <rect id="shadow" fill-opacity="0.25" fill="#000000" filter="url(#filter-4)" x="0.615759051" y="61.3989435" width="104.986918" height="1" rx="0.5"></rect>
                                <rect id="base" fill="#A9ABAE" x="0" y="59.0907125" width="106.526316" height="2.30823096" rx="1.15411548"></rect>
                                <rect id="shape" fill="#E6E7E8" x="0" y="55.8591892" width="106.526316" height="4.61646192"></rect>
                                <rect id="light" fill="#C0C0C0" x="97.9056891" y="57.2441278" width="3.6945543" height="1" rx="0.5"></rect>
                                <path d="M18.5444249,0 C14.1689041,0 10.6218436,3.54724828 10.6218436,7.91433943 L10.6218436,55.8591892 L95.4426529,55.8591892 L95.4426529,7.91433943 C95.4426529,3.54337046 91.8925788,0 87.5200716,0 L18.5444249,0 Z" id="screen" fill="#373435"></path>
                                <g id="display-2" transform="translate(13.762406, 3.436699)">
                                    <rect id="display" fill="#FFFFFF" x="0.0921726281" y="0.102588043" width="78.9710983" height="49.8577887"></rect>
                                    <g id="Group" transform="translate(26.930810, 6.606471)" fill="#05BCFC">
                                        <rect id="Rectangle" x="11.969249" y="1.2011765" width="31.4456704" height="3.37638394" rx="1.68819197"></rect>
                                        <ellipse id="Oval" cx="3.29154347" cy="3.30323537" rx="3.29154347" ry="3.30323537"></ellipse>
                                    </g>
                                    <g id="Group-Copy" transform="translate(26.930810, 16.215883)" fill="#05BCFC">
                                        <rect id="Rectangle" x="11.969249" y="1.2011765" width="31.4456704" height="3.37638394" rx="1.68819197"></rect>
                                        <ellipse id="Oval" cx="3.29154347" cy="3.30323537" rx="3.29154347" ry="3.30323537"></ellipse>
                                    </g>
                                    <g id="Group-Copy-2" transform="translate(26.930810, 25.825295)" fill="#05BCFC">
                                        <rect id="Rectangle" x="11.969249" y="1.2011765" width="31.4456704" height="3.37638394" rx="1.68819197"></rect>
                                        <ellipse id="Oval" cx="3.29154347" cy="3.30323537" rx="3.29154347" ry="3.30323537"></ellipse>
                                    </g>
                                    <g id="Group-Copy-3" transform="translate(26.930810, 35.434707)" fill="#D8D8D8">
                                        <rect id="Rectangle" x="11.969249" y="1.2011765" width="31.4456704" height="3.37638394" rx="1.68819197"></rect>
                                        <ellipse id="Oval" cx="3.29154347" cy="3.30323537" rx="3.29154347" ry="3.30323537"></ellipse>
                                    </g>
                                    <text id="settings---material" font-family="material" font-size="15.84689" font-weight="normal" fill="#D8D8D8">
                                        <tspan x="4.78769959" y="17.085338"></tspan>
                                    </text>
                                </g>
                                <path d="M13.5991041,0 L89.7992867,55.8591892 L89.7992867,7.91433943 C89.7992867,3.54337046 86.2515487,0 81.8780393,0 L13.5991041,0 Z" id="shine" fill="#000000" opacity="0.05" transform="translate(51.699195, 27.929595) rotate(-180.000000) translate(-51.699195, -27.929595) "></path>
                                <ellipse id="camera" fill="#7C7B7B" cx="53.3401278" cy="1.76964373" rx="1" ry="1"></ellipse>
                            </g>
                        </g>
                    </g>
                </g>
            </g>
        </g>
    </g>
</svg>