<svg xmlns="http://www.w3.org/2000/svg" width="259" height="74" viewBox="0 0 259 74">
    <g fill="none" fill-rule="evenodd">
        <g transform="translate(1 1)">
            <rect width="120" height="72" stroke="#979797" rx="3.9"/>
            <text fill="#999" font-family="Lato-Regular, Lato" font-size="24">
                <tspan x="17" y="53">Aa</tspan>
            </text>
            <text fill="#999" font-family="Lato-Regular, Lato" font-size="44">
                <tspan x="57" y="61">Aa</tspan>
            </text>
        </g>
        <g transform="translate(137 1)">
            <rect width="98.066" height="72" fill="#03BCFC" rx="3.9"/>
            <path fill="#2284F7" d="M0 41.058h98.066V68.1a3.9 3.9 0 0 1-3.9 3.9H3.9A3.9 3.9 0 0 1 0 68.1V41.058z"/>
        </g>
        <g transform="translate(159.967 1)">
            <rect width="98.066" height="72" fill="#FFCA00" rx="3.9"/>
            <path fill="#FF9C00" d="M0 41.058h98.066V68.1a3.9 3.9 0 0 1-3.9 3.9H3.9A3.9 3.9 0 0 1 0 68.1V41.058z"/>
        </g>
        <g transform="translate(190.934 1)">
            <rect width="66" height="72" fill="#FF363B" rx="3.9"/>
            <path fill="#E40D0D" d="M0 41.058h66V68.1a3.9 3.9 0 0 1-3.9 3.9H3.9A3.9 3.9 0 0 1 0 68.1V41.058z"/>
        </g>
    </g>
</svg>
