<?xml version="1.0" encoding="UTF-8"?>
<svg width="68px" height="59px" viewBox="0 0 68 59" version="1.1" xmlns="http://www.w3.org/2000/svg" xmlns:xlink="http://www.w3.org/1999/xlink">
    <!-- Generator: Sketch 53 (72520) - https://sketchapp.com -->
    <title>Shape</title>
    <desc>Created with Sketch.</desc>
    <g id="Symbols" stroke="none" stroke-width="1" fill="none" fill-rule="evenodd">
        <g id="chrome-store-screen-3" transform="translate(-1409.000000, -938.000000)" fill="#666666">
            <g id="MACBOOK_1" transform="translate(733.000000, 777.000000)">
                <g id="display-2" transform="translate(183.686335, 46.601496)">
                    <g id="twitter" transform="translate(453.664122, 69.333698)">
                        <path d="M98.6689094,54.468815 C101.545458,52.6529232 103.752671,49.7735577 104.788547,46.3435398 C102.095269,48.0291246 99.1191171,49.248126 95.9437583,49.9080682 C93.4098459,47.0497199 89.7882636,45.2674557 85.7802198,45.2674557 C78.0908316,45.2674557 71.8596382,51.8458602 71.8596382,59.9585251 C71.8596382,61.1102713 71.9751782,62.2325933 72.2142266,63.3044739 C60.6442869,62.6907697 50.3851291,56.8479696 43.5124893,47.9534624 C42.3132635,50.1308512 41.6279916,52.6529232 41.6279916,55.3431333 C41.6279916,60.4377187 44.0862053,64.9354138 47.8233277,67.5751825 C45.5404161,67.4995203 43.3929651,66.8311712 41.5124516,65.7382734 L41.5124516,65.9190218 C41.5124516,73.0396718 46.3093549,78.9791513 52.6879614,80.3242563 C51.5166245,80.6689395 50.2895097,80.8412811 49.0145853,80.8412811 C48.118154,80.8412811 47.2416434,80.7530086 46.3970059,80.580667 C48.1659637,86.4150602 53.3094871,90.6689549 59.4052197,90.7824482 C54.6362054,94.7252874 48.6321079,97.0708143 42.1100724,97.0708143 C40.9865452,97.0708143 39.8749704,97.0077625 38.7873005,96.8690486 C44.9507635,101.034671 52.2696268,103.46847 60.1343172,103.46847 C85.7523308,103.46847 99.7525952,81.0808779 99.7525952,61.6651271 C99.7525952,61.0262022 99.7446269,60.3914807 99.7167379,59.7651662 C102.437905,57.6928637 104.804483,55.1035365 106.665076,52.1569157 C104.167021,53.3254757 101.481712,54.115725 98.6689094,54.468815 Z" id="Shape"></path>
                    </g>
                </g>
            </g>
        </g>
    </g>
</svg>