<?xml version="1.0" encoding="UTF-8"?>
<svg width="635" height="167" viewBox="0 0 635 167" version="1.1" xmlns="http://www.w3.org/2000/svg" xmlns:xlink="http://www.w3.org/1999/xlink">
    <defs>
        <filter id="a" width="110.3%" height="2441.7%" x="-5.1%" y="-1170.9%" filterUnits="objectBoundingBox">
            <feGaussianBlur in="SourceGraphic" stdDeviation="4.512"/>
        </filter>
        <filter id="b" width="111.3%" height="2692.6%" x="-5.7%" y="-1296.3%" filterUnits="objectBoundingBox">
            <feGaussianBlur in="SourceGraphic" stdDeviation="2.256"/>
        </filter>
        <filter id="c" width="111.3%" height="2692.6%" x="-5.7%" y="-1296.3%" filterUnits="objectBoundingBox">
            <feGaussianBlur in="SourceGraphic" stdDeviation="2.256"/>
        </filter>
        <filter id="d" width="111.3%" height="2692.6%" x="-5.7%" y="-1296.3%" filterUnits="objectBoundingBox">
            <feGaussianBlur in="SourceGraphic" stdDeviation="2.256"/>
        </filter>
        <filter id="e" width="111.3%" height="2692.6%" x="-5.7%" y="-1296.3%" filterUnits="objectBoundingBox">
            <feGaussianBlur in="SourceGraphic" stdDeviation="2.256"/>
        </filter>
    </defs>
    <g fill="none" fill-rule="evenodd">
        <g fill="#E6E6E6">
            <text font-family="HelveticaNeue-Medium, Helvetica Neue" font-size="18.05" font-weight="400" transform="translate(156.917 64.678)">
                <tspan x="0" y="18">…………….…………..</tspan>
            </text>
            <path d="M344.933 81.223l-9.024 6.017V75.207z"/>
        </g>
        <g transform="translate(5 1.504)">
            <rect width="263.866" height="1.156" x="1.548" y="153.769" fill="#000" fill-opacity=".25" filter="url(#a)" rx=".578"/>
            <rect width="267.735" height="5.781" y="147.988" fill="#A9ABAE" rx="2.89"/>
            <path fill="#E6E7E8" d="M0 139.895h267.735v11.562H0z"/>
            <rect width="9.286" height="1.927" x="246.069" y="143.364" fill="#C0C0C0" rx=".963"/>
            <path fill="#373435" d="M44.746 0c-9.969 0-18.05 8.075-18.05 18.056v121.84h213.182V18.055C239.878 8.084 231.798 0 221.83 0H44.746z"/>
            <path fill="#FFF" d="M34.821 8.864h198.48v124.865H34.821z"/>
            <g fill="#05BCFC" transform="translate(102.275 25.152)">
                <rect width="79.033" height="8.456" x="30.083" y="3.008" rx="4.228"/>
                <circle cx="8.273" cy="8.273" r="8.273"/>
            </g>
            <g fill="#05BCFC" transform="translate(102.275 49.218)">
                <rect width="79.033" height="8.456" x="30.083" y="3.008" rx="4.228"/>
                <circle cx="8.273" cy="8.273" r="8.273"/>
            </g>
            <g fill="#05BCFC" transform="translate(102.275 73.285)">
                <rect width="79.033" height="8.456" x="30.083" y="3.008" rx="4.228"/>
                <circle cx="8.273" cy="8.273" r="8.273"/>
            </g>
            <g fill="#D8D8D8" transform="translate(102.275 97.35)">
                <rect width="79.033" height="8.456" x="30.083" y="3.008" rx="4.228"/>
                <circle cx="8.273" cy="8.273" r="8.273"/>
            </g>
            <text fill="#D8D8D8" font-family="material" font-size="36.099" transform="translate(34.59 8.607)">
                <tspan x="12.033" y="43.033"></tspan>
            </text>
            <path fill="#000" d="M225.695 139.895L34.179 0v121.84c0 9.971 8.076 18.055 18.05 18.055h173.466z" opacity=".05"/>
            <ellipse cx="134.061" cy="4.432" fill="#7C7B7B" rx="1" ry="1"/>
        </g>
        <g transform="translate(377.022)">
            <rect width="119.58" height="1" x=".701" y="69.444" fill="#000" fill-opacity=".25" filter="url(#b)" rx=".5"/>
            <rect width="121.333" height="2.611" y="66.834" fill="#A9ABAE" rx="1.305"/>
            <path fill="#E6E7E8" d="M0 63.179h121.333V68.4H0z"/>
            <rect width="4.208" height="1" x="111.514" y="64.745" fill="#C0C0C0" rx=".5"/>
            <path fill="#373435" d="M21.122 0c-4.984 0-9.024 4.048-9.024 9.018v54.16h96.61V9.019c0-4.98-4.043-9.018-9.023-9.018H21.122z"/>
            <path fill="#FFF" d="M15.78 4.003h89.948v56.391H15.78z"/>
            <g fill="#05BCFC" transform="translate(46.35 11.36)">
                <rect width="35.817" height="3.819" x="13.633" y="1.359" rx="1.909"/>
                <ellipse cx="3.749" cy="3.736" rx="3.749" ry="3.736"/>
            </g>
            <g fill="#05BCFC" transform="translate(46.35 22.228)">
                <rect width="35.817" height="3.819" x="13.633" y="1.359" rx="1.909"/>
                <ellipse cx="3.749" cy="3.736" rx="3.749" ry="3.736"/>
            </g>
            <g fill="#05BCFC" transform="translate(46.35 33.096)">
                <rect width="35.817" height="3.819" x="13.633" y="1.359" rx="1.909"/>
                <ellipse cx="3.749" cy="3.736" rx="3.749" ry="3.736"/>
            </g>
            <g fill="#D8D8D8" transform="translate(46.35 43.965)">
                <rect width="35.817" height="3.819" x="13.633" y="1.359" rx="1.909"/>
                <ellipse cx="3.749" cy="3.736" rx="3.749" ry="3.736"/>
            </g>
            <text fill="#D8D8D8" font-family="material" font-size="18.05" transform="translate(15.675 3.887)">
                <tspan x="5.453" y="19.561"></tspan>
            </text>
            <path fill="#000" d="M102.281 63.179L15.49 0v54.16c0 4.98 4.041 9.019 9.023 9.019h77.77z" opacity=".05"/>
            <ellipse cx="60.754" cy="2.002" fill="#7C7B7B" rx="1" ry="1"/>
        </g>
        <g transform="translate(377.022 86.237)">
            <rect width="119.58" height="1" x=".701" y="69.444" fill="#000" fill-opacity=".25" filter="url(#c)" rx=".5"/>
            <rect width="121.333" height="2.611" y="66.834" fill="#A9ABAE" rx="1.305"/>
            <path fill="#E6E7E8" d="M0 63.179h121.333V68.4H0z"/>
            <rect width="4.208" height="1" x="111.514" y="64.745" fill="#C0C0C0" rx=".5"/>
            <path fill="#373435" d="M21.122 0c-4.984 0-9.024 4.048-9.024 9.018v54.16h96.61V9.019c0-4.98-4.043-9.018-9.023-9.018H21.122z"/>
            <path fill="#FFF" d="M15.78 4.003h89.948v56.391H15.78z"/>
            <g fill="#05BCFC" transform="translate(46.35 11.36)">
                <rect width="35.817" height="3.819" x="13.633" y="1.359" rx="1.909"/>
                <ellipse cx="3.749" cy="3.736" rx="3.749" ry="3.736"/>
            </g>
            <g fill="#05BCFC" transform="translate(46.35 22.228)">
                <rect width="35.817" height="3.819" x="13.633" y="1.359" rx="1.909"/>
                <ellipse cx="3.749" cy="3.736" rx="3.749" ry="3.736"/>
            </g>
            <g fill="#05BCFC" transform="translate(46.35 33.096)">
                <rect width="35.817" height="3.819" x="13.633" y="1.359" rx="1.909"/>
                <ellipse cx="3.749" cy="3.736" rx="3.749" ry="3.736"/>
            </g>
            <g fill="#D8D8D8" transform="translate(46.35 43.965)">
                <rect width="35.817" height="3.819" x="13.633" y="1.359" rx="1.909"/>
                <ellipse cx="3.749" cy="3.736" rx="3.749" ry="3.736"/>
            </g>
            <text fill="#D8D8D8" font-family="material" font-size="18.05" transform="translate(15.675 3.887)">
                <tspan x="5.453" y="19.561"></tspan>
            </text>
            <path fill="#000" d="M102.281 63.179L15.49 0v54.16c0 4.98 4.041 9.019 9.023 9.019h77.77z" opacity=".05"/>
            <ellipse cx="60.754" cy="2.002" fill="#7C7B7B" rx="1" ry="1"/>
        </g>
        <g transform="translate(512.393)">
            <rect width="119.58" height="1" x=".701" y="69.444" fill="#000" fill-opacity=".25" filter="url(#d)" rx=".5"/>
            <rect width="121.333" height="2.611" y="66.834" fill="#A9ABAE" rx="1.305"/>
            <path fill="#E6E7E8" d="M0 63.179h121.333V68.4H0z"/>
            <rect width="4.208" height="1" x="111.514" y="64.745" fill="#C0C0C0" rx=".5"/>
            <path fill="#373435" d="M21.122 0c-4.984 0-9.024 4.048-9.024 9.018v54.16h96.61V9.019c0-4.98-4.043-9.018-9.023-9.018H21.122z"/>
            <path fill="#FFF" d="M15.78 4.003h89.948v56.391H15.78z"/>
            <g fill="#05BCFC" transform="translate(46.35 11.36)">
                <rect width="35.817" height="3.819" x="13.633" y="1.359" rx="1.909"/>
                <ellipse cx="3.749" cy="3.736" rx="3.749" ry="3.736"/>
            </g>
            <g fill="#05BCFC" transform="translate(46.35 22.228)">
                <rect width="35.817" height="3.819" x="13.633" y="1.359" rx="1.909"/>
                <ellipse cx="3.749" cy="3.736" rx="3.749" ry="3.736"/>
            </g>
            <g fill="#05BCFC" transform="translate(46.35 33.096)">
                <rect width="35.817" height="3.819" x="13.633" y="1.359" rx="1.909"/>
                <ellipse cx="3.749" cy="3.736" rx="3.749" ry="3.736"/>
            </g>
            <g fill="#D8D8D8" transform="translate(46.35 43.965)">
                <rect width="35.817" height="3.819" x="13.633" y="1.359" rx="1.909"/>
                <ellipse cx="3.749" cy="3.736" rx="3.749" ry="3.736"/>
            </g>
            <text fill="#D8D8D8" font-family="material" font-size="18.05" transform="translate(15.675 3.887)">
                <tspan x="5.453" y="19.561"></tspan>
            </text>
            <path fill="#000" d="M102.281 63.179L15.49 0v54.16c0 4.98 4.041 9.019 9.023 9.019h77.77z" opacity=".05"/>
            <ellipse cx="60.754" cy="2.002" fill="#7C7B7B" rx="1" ry="1"/>
        </g>
        <g transform="translate(512.393 86.237)">
            <rect width="119.58" height="1" x=".701" y="69.444" fill="#000" fill-opacity=".25" filter="url(#e)" rx=".5"/>
            <rect width="121.333" height="2.611" y="66.834" fill="#A9ABAE" rx="1.305"/>
            <path fill="#E6E7E8" d="M0 63.179h121.333V68.4H0z"/>
            <rect width="4.208" height="1" x="111.514" y="64.745" fill="#C0C0C0" rx=".5"/>
            <path fill="#373435" d="M21.122 0c-4.984 0-9.024 4.048-9.024 9.018v54.16h96.61V9.019c0-4.98-4.043-9.018-9.023-9.018H21.122z"/>
            <path fill="#FFF" d="M15.78 4.003h89.948v56.391H15.78z"/>
            <g fill="#05BCFC" transform="translate(46.35 11.36)">
                <rect width="35.817" height="3.819" x="13.633" y="1.359" rx="1.909"/>
                <ellipse cx="3.749" cy="3.736" rx="3.749" ry="3.736"/>
            </g>
            <g fill="#05BCFC" transform="translate(46.35 22.228)">
                <rect width="35.817" height="3.819" x="13.633" y="1.359" rx="1.909"/>
                <ellipse cx="3.749" cy="3.736" rx="3.749" ry="3.736"/>
            </g>
            <g fill="#05BCFC" transform="translate(46.35 33.096)">
                <rect width="35.817" height="3.819" x="13.633" y="1.359" rx="1.909"/>
                <ellipse cx="3.749" cy="3.736" rx="3.749" ry="3.736"/>
            </g>
            <g fill="#D8D8D8" transform="translate(46.35 43.965)">
                <rect width="35.817" height="3.819" x="13.633" y="1.359" rx="1.909"/>
                <ellipse cx="3.749" cy="3.736" rx="3.749" ry="3.736"/>
            </g>
            <text fill="#D8D8D8" font-family="material" font-size="18.05" transform="translate(15.675 3.887)">
                <tspan x="5.453" y="19.561"></tspan>
            </text>
            <path fill="#000" d="M102.281 63.179L15.49 0v54.16c0 4.98 4.041 9.019 9.023 9.019h77.77z" opacity=".05"/>
            <ellipse cx="60.754" cy="2.002" fill="#7C7B7B" rx="1" ry="1"/>
        </g>
    </g>
</svg>
