<svg xmlns="http://www.w3.org/2000/svg" xmlns:xlink="http://www.w3.org/1999/xlink" width="162" height="162" viewBox="0 0 162 162">
    <defs>
        <rect id="a" width="160" height="160" rx="6"/>
    </defs>
    <g fill="none" fill-rule="evenodd" transform="translate(1 1)">
        <mask id="b" fill="#fff">
            <use xlink:href="#a"/>
        </mask>
        <use fill="#03BCFC" stroke="#2284F7" xlink:href="#a"/>
        <path fill="#2284F7" d="M0 0h160v109H0z" mask="url(#b)"/>
        <rect width="64" height="16" x="16" y="20" fill="#FFF" mask="url(#b)" rx="4"/>
        <rect width="64" height="8" x="16" y="52" fill="#FFF" mask="url(#b)" rx="4"/>
        <rect width="64" height="8" x="16" y="76" fill="#FFF" mask="url(#b)" rx="4"/>
        <path fill="#FFF" fill-opacity=".5" d="M118.333 20h-11.666c-.925 0-1.667.75-1.667 1.667v11.666c0 .917.742 1.667 1.667 1.667H110l2.5 2.5L115 35h3.333c.917 0 1.667-.75 1.667-1.667V21.667c0-.917-.75-1.667-1.667-1.667zm-5 13.333h-1.666v-1.666h1.666v1.666zm1.725-6.458l-.75.767c-.6.608-.975 1.108-.975 2.358h-1.666v-.417c0-.916.375-1.75.975-2.358l1.033-1.05c.308-.3.492-.717.492-1.175 0-.917-.75-1.667-1.667-1.667s-1.667.75-1.667 1.667h-1.666a3.332 3.332 0 1 1 6.666 0c0 .733-.3 1.4-.775 1.875z" mask="url(#b)"/>
        <path fill="#FFF" fill-opacity=".5" fill-rule="nonzero" d="M144 29.455v-2.91h-2.372a5.795 5.795 0 0 0-.62-1.496l1.677-1.677-2.057-2.057-1.677 1.677a5.795 5.795 0 0 0-1.496-.62V20h-2.91v2.372a5.795 5.795 0 0 0-1.496.62l-1.677-1.677-2.057 2.057 1.677 1.677a5.795 5.795 0 0 0-.62 1.496H128v2.91h2.372c.138.532.347 1.034.62 1.496l-1.677 1.677 2.057 2.057 1.677-1.677c.462.273.964.482 1.496.62V36h2.91v-2.372a5.795 5.795 0 0 0 1.496-.62l1.677 1.677 2.057-2.057-1.677-1.677c.273-.462.482-.964.62-1.496H144zm-8 .727a2.182 2.182 0 1 1 0-4.364 2.182 2.182 0 0 1 0 4.364z" mask="url(#b)"/>
    </g>
</svg>
