<svg xmlns="http://www.w3.org/2000/svg" xmlns:xlink="http://www.w3.org/1999/xlink" width="271" height="151" viewBox="0 0 271 151">
    <defs>
        <path id="b" d="M33 31h1374a6 6 0 0 1 6 6v1003a6 6 0 0 1-6 6H33a6 6 0 0 1-6-6V37a6 6 0 0 1 6-6z"/>
        <filter id="a" width="119.2%" height="126.2%" x="-9.6%" y="-12.1%" filterUnits="objectBoundingBox">
            <feMorphology in="SourceAlpha" operator="dilate" radius=".5" result="shadowSpreadOuter1"/>
            <feOffset dy="10" in="shadowSpreadOuter1" result="shadowOffsetOuter1"/>
            <feGaussianBlur in="shadowOffsetOuter1" result="shadowBlurOuter1" stdDeviation="42.5"/>
            <feComposite in="shadowBlurOuter1" in2="SourceAlpha" operator="out" result="shadowBlurOuter1"/>
            <feColorMatrix in="shadowBlurOuter1" values="0 0 0 0 0 0 0 0 0 0 0 0 0 0 0 0 0 0 0.3 0"/>
        </filter>
        <filter id="c" width="134.5%" height="136.2%" x="-17.3%" y="-18.1%" filterUnits="objectBoundingBox">
            <feOffset dy="10" in="SourceAlpha" result="shadowOffsetOuter1"/>
            <feGaussianBlur in="shadowOffsetOuter1" result="shadowBlurOuter1" stdDeviation="10"/>
            <feColorMatrix in="shadowBlurOuter1" result="shadowMatrixOuter1" values="0 0 0 0 0 0 0 0 0 0 0 0 0 0 0 0 0 0 0.2 0"/>
            <feMerge>
                <feMergeNode in="shadowMatrixOuter1"/>
                <feMergeNode in="SourceGraphic"/>
            </feMerge>
        </filter>
        <rect id="d" width="271" height="151" x="33" y="142" rx="6"/>
        <rect id="g" width="151" height="151" rx="6"/>
        <filter id="f" width="146.4%" height="146.4%" x="-23.2%" y="-16.6%" filterUnits="objectBoundingBox">
            <feOffset dy="10" in="SourceAlpha" result="shadowOffsetOuter1"/>
            <feGaussianBlur in="shadowOffsetOuter1" result="shadowBlurOuter1" stdDeviation="10"/>
            <feColorMatrix in="shadowBlurOuter1" values="0 0 0 0 0 0 0 0 0 0 0 0 0 0 0 0 0 0 0.2 0"/>
        </filter>
        <rect id="i" width="151" height="151" rx="6"/>
        <filter id="h" width="146.4%" height="146.4%" x="-23.2%" y="-16.6%" filterUnits="objectBoundingBox">
            <feOffset dy="10" in="SourceAlpha" result="shadowOffsetOuter1"/>
            <feGaussianBlur in="shadowOffsetOuter1" result="shadowBlurOuter1" stdDeviation="10"/>
            <feColorMatrix in="shadowBlurOuter1" values="0 0 0 0 0 0 0 0 0 0 0 0 0 0 0 0 0 0 0.2 0"/>
        </filter>
        <rect id="k" width="151" height="151" rx="6"/>
        <filter id="j" width="146.4%" height="146.4%" x="-23.2%" y="-16.6%" filterUnits="objectBoundingBox">
            <feOffset dy="10" in="SourceAlpha" result="shadowOffsetOuter1"/>
            <feGaussianBlur in="shadowOffsetOuter1" result="shadowBlurOuter1" stdDeviation="10"/>
            <feColorMatrix in="shadowBlurOuter1" values="0 0 0 0 0 0 0 0 0 0 0 0 0 0 0 0 0 0 0.2 0"/>
        </filter>
    </defs>
    <g fill="none" fill-rule="evenodd">
        <path fill="#FFF" d="M-329-413h1440V611H-329z"/>
        <g transform="translate(-329 -413)">
            <use fill="#000" filter="url(#a)" xlink:href="#b"/>
            <path fill="#DDE1E5" stroke="#DEDEDE" stroke-width=".5" d="M33 30.75h1374a6.25 6.25 0 0 1 6.25 6.25v1003a6.25 6.25 0 0 1-6.25 6.25H33a6.25 6.25 0 0 1-6.25-6.25V37A6.25 6.25 0 0 1 33 30.75z"/>
        </g>
        <path fill="#FFF" d="M-329-349h1440v960H-329z"/>
        <g filter="url(#c)" transform="translate(-33 -142)">
            <rect width="336" height="320" fill="#FFF" rx="6"/>
            <mask id="e" fill="#fff">
                <use xlink:href="#d"/>
            </mask>
            <rect width="270" height="150" x="33.5" y="142.5" stroke="#979797" rx="6"/>
            <g mask="url(#e)">
                <g transform="translate(33 142)">
                    <use fill="#000" filter="url(#f)" xlink:href="#g"/>
                    <use fill="#03BCFC" xlink:href="#g"/>
                </g>
                <path fill="#2284F7" d="M33 244h151v43a6 6 0 0 1-6 6H39a6 6 0 0 1-6-6v-43z"/>
                <g transform="translate(93 142)">
                    <use fill="#000" filter="url(#h)" xlink:href="#i"/>
                    <use fill="#FFCA00" xlink:href="#i"/>
                </g>
                <path fill="#FF9C00" d="M93 244h151v43a6 6 0 0 1-6 6H99a6 6 0 0 1-6-6v-43z"/>
                <g>
                    <g transform="translate(153 142)">
                        <use fill="#000" filter="url(#j)" xlink:href="#k"/>
                        <use fill="#FF363B" xlink:href="#k"/>
                    </g>
                    <path fill="#E40D0D" d="M153 244h151v43a6 6 0 0 1-6 6H159a6 6 0 0 1-6-6v-43z"/>
                </g>
            </g>
        </g>
    </g>
</svg>
